<?xml version="1.0" standalone="no"?>
<!DOCTYPE svg PUBLIC "-//W3C//DTD SVG 20010904//EN"
 "http://www.w3.org/TR/2001/REC-SVG-20010904/DTD/svg10.dtd">
<svg version="1.0" xmlns="http://www.w3.org/2000/svg"
 width="1280.000000pt" height="1280.000000pt" viewBox="0 0 1280.000000 1280.000000"
 preserveAspectRatio="xMidYMid meet">
<metadata>
Created by potrace 1.15, written by Peter Selinger 2001-2017
</metadata>
<g transform="translate(0.000000,1280.000000) scale(0.100000,-0.100000)"
fill="#000000" stroke="none">
<path d="M5890 11354 c-596 -34 -1161 -174 -1724 -429 -204 -93 -260 -141
-305 -259 -23 -62 -25 -84 -46 -611 -8 -198 -20 -485 -26 -638 -6 -153 -9
-300 -6 -326 7 -63 201 -571 243 -638 65 -103 206 -172 325 -159 84 8 131 32
224 111 328 278 621 438 940 510 160 37 396 45 563 21 290 -43 504 -148 624
-308 59 -77 86 -147 101 -255 l10 -82 -58 -78 c-86 -114 -291 -320 -620 -623
-587 -540 -817 -809 -1048 -1225 -117 -210 -199 -464 -231 -713 -42 -327 -3
-828 94 -1208 53 -208 117 -302 248 -366 l67 -33 800 0 800 0 57 27 c162 76
261 262 230 431 -6 34 -27 99 -47 145 -55 131 -124 346 -140 438 -22 124 -29
288 -17 374 44 309 267 593 902 1149 472 413 772 790 989 1241 119 248 179
439 218 690 26 163 25 575 -1 745 -47 311 -141 572 -296 830 -353 585 -1008
998 -1845 1165 -313 62 -718 91 -1025 74z"/>
<path d="M5867 3879 c-92 -13 -214 -49 -309 -89 -255 -109 -516 -358 -632
-603 -49 -103 -142 -367 -165 -467 -137 -587 77 -1140 568 -1470 191 -128 410
-203 646 -219 409 -29 786 114 1087 413 283 282 427 657 404 1056 -20 347
-147 641 -376 870 -48 48 -161 144 -250 213 -235 181 -386 254 -604 292 -94
16 -273 18 -369 4z"/>
</g>
</svg>
